<?xml version="1.0" encoding="UTF-8" standalone="no"?>
<!DOCTYPE svg PUBLIC "-//W3C//DTD SVG 1.1//EN"
 "http://www.w3.org/Graphics/SVG/1.1/DTD/svg11.dtd">
<!-- Generated by graphviz version 2.43.0 (0)
 -->
<!-- Title: G Pages: 1 -->
<svg width="220pt" height="231pt"
 viewBox="0.00 0.00 219.72 230.52" xmlns="http://www.w3.org/2000/svg" xmlns:xlink="http://www.w3.org/1999/xlink">
<g id="graph0" class="graph" transform="scale(1 1) rotate(0) translate(4 226.52)">
<title>G</title>
<polygon fill="white" stroke="transparent" points="-4,4 -4,-226.52 215.72,-226.52 215.72,4 -4,4"/>
<!-- n1 -->
<g id="node1" class="node">
<title>n1</title>
<ellipse fill="black" stroke="black" cx="70.36" cy="-69.51" rx="1.8" ry="1.8"/>
</g>
<!-- n3 -->
<g id="node3" class="node">
<title>n3</title>
<ellipse fill="black" stroke="black" cx="75.79" cy="-146.17" rx="1.8" ry="1.8"/>
</g>
<!-- n1&#45;&gt;n3 -->
<g id="edge6" class="edge">
<title>n1&#45;&gt;n3</title>
<path fill="none" stroke="grey" d="M70.49,-71.4C70.82,-76.09 71.72,-88.81 72.69,-102.47"/>
<path fill="none" stroke="grey" d="M72.69,-102.47C73.66,-116.12 74.69,-130.7 75.29,-139.1"/>
<polygon fill="grey" stroke="grey" points="73.56,-139.47 75.66,-144.34 77.05,-139.23 73.56,-139.47"/>
<text text-anchor="middle" x="65.39" y="-109.05" font-family="Times,serif" font-size="14.00">q₂</text>
</g>
<!-- n7 -->
<!-- n1&#45;&gt;n7 -->
<g id="edge4" class="edge">
<title>n1&#45;&gt;n7</title>
<path fill="none" stroke="blue" stroke-width="2" d="M69.49,-67.84C65.31,-59.74 47.02,-24.28 39.15,-9.02"/>
<polygon fill="blue" stroke="blue" stroke-width="2" points="40.61,-8.04 36.76,-4.4 37.5,-9.65 40.61,-8.04"/>
<text text-anchor="middle" x="46.82" y="-42.23" font-family="Times,serif" font-size="14.00">p₄</text>
</g>
<!-- n2 -->
<g id="node2" class="node">
<title>n2</title>
<ellipse fill="black" stroke="black" cx="135.94" cy="-98.26" rx="1.8" ry="1.8"/>
</g>
<!-- n2&#45;&gt;n1 -->
<g id="edge5" class="edge">
<title>n2&#45;&gt;n1</title>
<path fill="none" stroke="blue" stroke-width="2" d="M134.05,-97.43C129.86,-95.59 119.26,-90.95 107.89,-85.96"/>
<path fill="none" stroke="deepskyblue" stroke-width="2" d="M107.89,-85.96C96.52,-80.98 84.37,-75.65 77.07,-72.45"/>
<polygon fill="deepskyblue" stroke="deepskyblue" stroke-width="2" points="77.41,-70.69 72.13,-70.29 76.01,-73.9 77.41,-70.69"/>
<text text-anchor="middle" x="98.06" y="-88.74" font-family="Times,serif" font-size="14.00">q₁</text>
</g>
<!-- n2&#45;&gt;n3 -->
<g id="edge7" class="edge">
<title>n2&#45;&gt;n3</title>
<path fill="none" stroke="grey" d="M134.45,-99.45C130.81,-102.35 120.96,-110.19 110.36,-118.63"/>
<path fill="none" stroke="grey" d="M110.36,-118.63C99.75,-127.08 88.38,-136.14 81.68,-141.47"/>
<polygon fill="grey" stroke="grey" points="80.26,-140.36 77.44,-144.85 82.44,-143.1 80.26,-140.36"/>
<text text-anchor="middle" x="100.57" y="-124.26" font-family="Times,serif" font-size="14.00">q₃</text>
</g>
<!-- n5 -->
<!-- n3&#45;&gt;n5 -->
<g id="edge2" class="edge">
<title>n3&#45;&gt;n5</title>
<path fill="none" stroke="red" stroke-width="2" d="M76.49,-148C79.95,-157.09 95.31,-197.38 101.52,-213.66"/>
<polygon fill="red" stroke="red" stroke-width="2" points="99.94,-214.42 103.35,-218.47 103.21,-213.18 99.94,-214.42"/>
<text text-anchor="middle" x="81.5" y="-184.63" font-family="Times,serif" font-size="14.00">p₂</text>
</g>
<!-- n4 -->
<!-- n4&#45;&gt;n3 -->
<g id="edge1" class="edge">
<title>n4&#45;&gt;n3</title>
<path fill="none" stroke="lightcoral" stroke-width="2" d="M4.13,-174.95C13.72,-171.1 53.18,-155.25 69.09,-148.86"/>
<polygon fill="lightcoral" stroke="lightcoral" stroke-width="2" points="70.07,-150.35 74.06,-146.86 68.76,-147.1 70.07,-150.35"/>
<text text-anchor="middle" x="29.11" y="-165.7" font-family="Times,serif" font-size="14.00">p₁</text>
</g>
<!-- n6 -->
<!-- n6&#45;&gt;n2 -->
<g id="edge3" class="edge">
<title>n6&#45;&gt;n2</title>
<path fill="none" stroke="deepskyblue" stroke-width="2" d="M207.59,-80.55C198.08,-82.9 159.23,-92.5 143.06,-96.5"/>
<polygon fill="deepskyblue" stroke="deepskyblue" stroke-width="2" points="142.37,-94.87 137.94,-97.77 143.21,-98.27 142.37,-94.87"/>
<text text-anchor="middle" x="167.83" y="-92.32" font-family="Times,serif" font-size="14.00">p₃</text>
</g>
</g>
</svg>
