<?xml version="1.0" encoding="UTF-8" standalone="no"?>
<svg
   xmlns:dc="http://purl.org/dc/elements/1.1/"
   xmlns:cc="http://creativecommons.org/ns#"
   xmlns:rdf="http://www.w3.org/1999/02/22-rdf-syntax-ns#"
   xmlns:svg="http://www.w3.org/2000/svg"
   xmlns="http://www.w3.org/2000/svg"
   viewBox="0 0 83.886665 26.786667"
   height="26.786667"
   width="83.886665"
   xml:space="preserve"
   id="svg2"
   version="1.1"><metadata
     id="metadata8"><rdf:RDF><cc:Work
         rdf:about=""><dc:format>image/svg+xml</dc:format><dc:type
           rdf:resource="http://purl.org/dc/dcmitype/StillImage" /></cc:Work></rdf:RDF></metadata><defs
     id="defs6" /><g
     transform="matrix(1.3333333,0,0,-1.3333333,0,26.786667)"
     id="g10"><g
       transform="translate(31.457,10.045)"
       id="g12"><g
         id="g14"><g
           id="g16"><g
             id="g18"><g
               transform="translate(-28.136)"
               id="g20"><g
                 transform="translate(28.545)"
                 id="g22"><g
                   id="g24"><path
                     id="path26"
                     style="fill:none;stroke:#000000;stroke-width:0.3985;stroke-linecap:butt;stroke-linejoin:miter;stroke-miterlimit:10;stroke-dasharray:none;stroke-opacity:1"
                     d="M -28.3468,0 H -0.45827" /><g
                     transform="translate(-0.45827)"
                     id="g28"><g
                       id="g30"><path
                         id="path32"
                         style="fill:none;stroke:#000000;stroke-width:0.31878999;stroke-linecap:round;stroke-linejoin:round;stroke-miterlimit:10;stroke-dasharray:none;stroke-opacity:1"
                         d="M -1.19551,1.59401 C -1.09587,0.99626 0,0.09961 0.29886,0 0,-0.09961 -1.09587,-0.99626 -1.19551,-1.59401" /></g></g><g
                     id="g34"><path
                       id="path36"
                       style="fill:#0000ff;fill-opacity:1;fill-rule:nonzero;stroke:none"
                       d="M 1.99255,0 C 1.99255,1.10046 1.10046,1.99255 0,1.99255 -1.10046,1.99255 -1.99255,1.10046 -1.99255,0 c 0,-1.10046 0.89209,-1.99255 1.99255,-1.99255 1.10046,0 1.99255,0.89209 1.99255,1.99255 z" /></g></g><g
                   transform="translate(9.049)"
                   id="g38"><g
                     id="g40"><g
                       id="g42"><g
                         transform="translate(-3.736,-3.404)"
                         id="g44"><g
                           id="g46"><g
                             transform="translate(-37.179,-6.641)"
                             id="g48"><text
                               id="text52"
                               style="font-variant:normal;font-weight:normal;font-size:9.96259975px;font-family:CMR10;-inkscape-font-specification:CMR10;writing-mode:lr-tb;fill:#000000;fill-opacity:1;fill-rule:nonzero;stroke:none"
                               transform="matrix(1,0,0,-1,37.179,6.641)"><tspan
                                 id="tspan50"
                                 y="0"
                                 x="0">X</tspan></text>
<g
                               transform="translate(37.179,6.641)"
                               id="g54" /></g></g><g
                           transform="translate(3.736,3.404)"
                           id="g56" /></g></g><g
                       id="g58"><path
                         id="path60"
                         style="fill:#0000ff;fill-opacity:1;fill-rule:nonzero;stroke:none"
                         d="M 1.99255,0 C 1.99255,1.10046 1.10046,1.99255 0,1.99255 -1.10046,1.99255 -1.99255,1.10046 -1.99255,0 c 0,-1.10046 0.89209,-1.99255 1.99255,-1.99255 1.10046,0 1.99255,0.89209 1.99255,1.99255 z" /></g></g><g
                     transform="translate(12.868)"
                     id="g62"><g
                       id="g64"><g
                         id="g66"><g
                           transform="translate(-2.491,-1.176)"
                           id="g68"><g
                             id="g70"><g
                               transform="translate(-51.292,-8.869)"
                               id="g72"><text
                                 id="text76"
                                 style="font-variant:normal;font-weight:normal;font-size:9.96259975px;font-family:CMR10;-inkscape-font-specification:CMR10;writing-mode:lr-tb;fill:#000000;fill-opacity:1;fill-rule:nonzero;stroke:none"
                                 transform="matrix(1,0,0,-1,51.292,8.869)"><tspan
                                   id="tspan74"
                                   y="0"
                                   x="0">g</tspan></text>
<g
                                 transform="translate(51.292,8.869)"
                                 id="g78" /></g></g><g
                             transform="translate(2.491,1.176)"
                             id="g80" /></g></g><g
                         id="g82"><path
                           id="path84"
                           style="fill:#0000ff;fill-opacity:1;fill-rule:nonzero;stroke:none"
                           d="M 1.99255,0 C 1.99255,1.10046 1.10046,1.99255 0,1.99255 -1.10046,1.99255 -1.99255,1.10046 -1.99255,0 c 0,-1.10046 0.89209,-1.99255 1.99255,-1.99255 1.10046,0 1.99255,0.89209 1.99255,1.99255 z" /></g></g><g
                       transform="translate(-50.463)"
                       id="g86" /></g></g></g><g
                 transform="translate(28.137)"
                 id="g88" /></g></g></g></g></g></g></svg>