<?xml version="1.0" encoding="UTF-8" standalone="no"?>
<svg
   xmlns:dc="http://purl.org/dc/elements/1.1/"
   xmlns:cc="http://creativecommons.org/ns#"
   xmlns:rdf="http://www.w3.org/1999/02/22-rdf-syntax-ns#"
   xmlns:svg="http://www.w3.org/2000/svg"
   xmlns="http://www.w3.org/2000/svg"
   viewBox="0 0 49.013332 27.317333"
   height="27.317333"
   width="49.013332"
   xml:space="preserve"
   id="svg2"
   version="1.1"><metadata
     id="metadata8"><rdf:RDF><cc:Work
         rdf:about=""><dc:format>image/svg+xml</dc:format><dc:type
           rdf:resource="http://purl.org/dc/dcmitype/StillImage" /></cc:Work></rdf:RDF></metadata><defs
     id="defs6" /><g
     transform="matrix(1.3333333,0,0,-1.3333333,0,27.317333)"
     id="g10"><g
       transform="translate(18.38,10.244)"
       id="g12"><g
         id="g14"><g
           id="g16"><g
             id="g18"><g
               id="g20"><path
                 id="path22"
                 style="fill:none;stroke:#ff0000;stroke-width:0.3985;stroke-linecap:butt;stroke-linejoin:miter;stroke-miterlimit:10;stroke-dasharray:none;stroke-opacity:1"
                 d="M -18.18098,-10.04506 H 18.18099 V 10.04507 H -18.18098 Z" /></g><g
               transform="translate(-14.86)"
               id="g24"><g
                 transform="translate(1.992)"
                 id="g26"><g
                   id="g28"><g
                     id="g30"><path
                       id="path32"
                       style="fill:#0000ff;fill-opacity:1;fill-rule:nonzero;stroke:none"
                       d="M 1.99255,0 C 1.99255,1.10046 1.10046,1.99255 0,1.99255 -1.10046,1.99255 -1.99255,1.10046 -1.99255,0 c 0,-1.10046 0.89209,-1.99255 1.99255,-1.99255 1.10046,0 1.99255,0.89209 1.99255,1.99255 z" /></g></g><g
                   transform="translate(9.049)"
                   id="g34"><g
                     id="g36"><g
                       id="g38"><g
                         transform="translate(-3.736,-3.404)"
                         id="g40"><g
                           id="g42"><g
                             transform="translate(-10.825,-6.84)"
                             id="g44"><text
                               id="text48"
                               style="font-variant:normal;font-weight:normal;font-size:9.96259975px;font-family:CMR10;-inkscape-font-specification:CMR10;writing-mode:lr-tb;fill:#000000;fill-opacity:1;fill-rule:nonzero;stroke:none"
                               transform="matrix(1,0,0,-1,10.825,6.84)"><tspan
                                 id="tspan46"
                                 y="0"
                                 x="0">X</tspan></text>
<g
                               transform="translate(10.825,6.84)"
                               id="g50" /></g></g><g
                           transform="translate(3.736,3.404)"
                           id="g52" /></g></g><g
                       id="g54"><path
                         id="path56"
                         style="fill:#0000ff;fill-opacity:1;fill-rule:nonzero;stroke:none"
                         d="M 1.99255,0 C 1.99255,1.10046 1.10046,1.99255 0,1.99255 -1.10046,1.99255 -1.99255,1.10046 -1.99255,0 c 0,-1.10046 0.89209,-1.99255 1.99255,-1.99255 1.10046,0 1.99255,0.89209 1.99255,1.99255 z" /></g></g><g
                     transform="translate(12.868)"
                     id="g58"><g
                       id="g60"><g
                         id="g62"><g
                           transform="translate(-2.491,-1.176)"
                           id="g64"><g
                             id="g66"><g
                               transform="translate(-24.938,-9.068)"
                               id="g68"><text
                                 id="text72"
                                 style="font-variant:normal;font-weight:normal;font-size:9.96259975px;font-family:CMR10;-inkscape-font-specification:CMR10;writing-mode:lr-tb;fill:#000000;fill-opacity:1;fill-rule:nonzero;stroke:none"
                                 transform="matrix(1,0,0,-1,24.938,9.068)"><tspan
                                   id="tspan70"
                                   y="0"
                                   x="0">g</tspan></text>
<g
                                 transform="translate(24.938,9.068)"
                                 id="g74" /></g></g><g
                             transform="translate(2.491,1.176)"
                             id="g76" /></g></g><g
                         id="g78"><path
                           id="path80"
                           style="fill:#0000ff;fill-opacity:1;fill-rule:nonzero;stroke:none"
                           d="M 1.99255,0 C 1.99255,1.10046 1.10046,1.99255 0,1.99255 -1.10046,1.99255 -1.99255,1.10046 -1.99255,0 c 0,-1.10046 0.89209,-1.99255 1.99255,-1.99255 1.10046,0 1.99255,0.89209 1.99255,1.99255 z" /></g></g><g
                       transform="translate(-23.909)"
                       id="g82" /></g></g></g><g
                 transform="translate(14.86)"
                 id="g84" /></g></g></g></g></g></g></svg>