<?xml version="1.0" encoding="UTF-8" standalone="no"?>
<!DOCTYPE svg PUBLIC "-//W3C//DTD SVG 1.1//EN"
 "http://www.w3.org/Graphics/SVG/1.1/DTD/svg11.dtd">
<!-- Generated by graphviz version 2.43.0 (0)
 -->
<!-- Title: G Pages: 1 -->
<svg width="222pt" height="222pt"
 viewBox="0.00 0.00 221.76 222.13" xmlns="http://www.w3.org/2000/svg" xmlns:xlink="http://www.w3.org/1999/xlink">
<g id="graph0" class="graph" transform="scale(1 1) rotate(0) translate(4 218.13)">
<title>G</title>
<polygon fill="white" stroke="transparent" points="-4,4 -4,-218.13 217.76,-218.13 217.76,4 -4,4"/>
<!-- n1 -->
<g id="node1" class="node">
<title>n1</title>
<ellipse fill="none" stroke="cornflowerblue" cx="143.96" cy="-61.79" rx="10.71" ry="10.71"/>
<text text-anchor="middle" x="143.96" y="-58.09" font-family="Times,serif" font-size="14.00">1</text>
</g>
<!-- n2 -->
<g id="node2" class="node">
<title>n2</title>
<ellipse fill="none" stroke="cornflowerblue" cx="152.11" cy="-143.52" rx="10.71" ry="10.71"/>
<text text-anchor="middle" x="152.11" y="-139.82" font-family="Times,serif" font-size="14.00">2</text>
</g>
<!-- n1&#45;&gt;n2 -->
<g id="edge5" class="edge">
<title>n1&#45;&gt;n2</title>
<path fill="none" stroke="cornflowerblue" d="M145.03,-72.47C146.43,-86.55 148.91,-111.41 150.53,-127.67"/>
<polygon fill="cornflowerblue" stroke="cornflowerblue" points="148.81,-128.03 151.04,-132.83 152.29,-127.68 148.81,-128.03"/>
<text text-anchor="middle" x="142.78" y="-103.87" font-family="Times,serif" font-size="14.00">5</text>
</g>
<!-- n8 -->
<!-- n1&#45;&gt;n8 -->
<g id="edge4" class="edge">
<title>n1&#45;&gt;n8</title>
<path fill="none" stroke="blue" stroke-width="2" d="M150.84,-53.47C160.88,-41.35 179.33,-19.07 188.29,-8.24"/>
<polygon fill="blue" stroke="blue" stroke-width="2" points="189.66,-9.33 191.5,-4.36 186.96,-7.1 189.66,-9.33"/>
<text text-anchor="middle" x="160.07" y="-34.66" font-family="Times,serif" font-size="14.00">12</text>
</g>
<!-- n6 -->
<!-- n2&#45;&gt;n6 -->
<g id="edge2" class="edge">
<title>n2&#45;&gt;n6</title>
<path fill="none" stroke="red" stroke-width="2" d="M160.4,-150.43C172.51,-160.51 194.73,-179.03 205.54,-188.03"/>
<polygon fill="red" stroke="red" stroke-width="2" points="204.44,-189.4 209.41,-191.25 206.68,-186.71 204.44,-189.4"/>
<text text-anchor="middle" x="173.47" y="-173.03" font-family="Times,serif" font-size="14.00">10</text>
</g>
<!-- n3 -->
<g id="node3" class="node">
<title>n3</title>
<ellipse fill="none" stroke="cornflowerblue" cx="62.25" cy="-69.9" rx="10.71" ry="10.71"/>
<text text-anchor="middle" x="62.25" y="-66.2" font-family="Times,serif" font-size="14.00">3</text>
</g>
<!-- n3&#45;&gt;n1 -->
<g id="edge6" class="edge">
<title>n3&#45;&gt;n1</title>
<path fill="none" stroke="cornflowerblue" stroke-width="2" d="M72.93,-68.84C87,-67.44 111.86,-64.97 128.12,-63.36"/>
<polygon fill="cornflowerblue" stroke="cornflowerblue" stroke-width="2" points="128.47,-65.08 133.27,-62.85 128.13,-61.6 128.47,-65.08"/>
<text text-anchor="middle" x="95.52" y="-69.9" font-family="Times,serif" font-size="14.00">6</text>
</g>
<!-- n4 -->
<g id="node4" class="node">
<title>n4</title>
<ellipse fill="none" stroke="cornflowerblue" cx="70.31" cy="-151.63" rx="10.71" ry="10.71"/>
<text text-anchor="middle" x="70.31" y="-147.93" font-family="Times,serif" font-size="14.00">4</text>
</g>
<!-- n3&#45;&gt;n4 -->
<g id="edge8" class="edge">
<title>n3&#45;&gt;n4</title>
<path fill="none" stroke="grey" d="M63.3,-80.58C64,-87.62 64.95,-97.35 65.94,-107.36"/>
<path fill="none" stroke="grey" d="M65.94,-107.36C66.93,-117.37 67.94,-127.65 68.74,-135.78"/>
<polygon fill="grey" stroke="grey" points="67.02,-136.14 69.25,-140.94 70.5,-135.79 67.02,-136.14"/>
<text text-anchor="middle" x="61.02" y="-111.98" font-family="Times,serif" font-size="14.00">8</text>
</g>
<!-- n4&#45;&gt;n2 -->
<g id="edge7" class="edge">
<title>n4&#45;&gt;n2</title>
<path fill="none" stroke="cornflowerblue" stroke-width="2" d="M81,-150.57C95.09,-149.17 119.97,-146.7 136.25,-145.09"/>
<polygon fill="cornflowerblue" stroke="cornflowerblue" stroke-width="2" points="136.61,-146.81 141.41,-144.58 136.26,-143.33 136.61,-146.81"/>
<text text-anchor="middle" x="103.63" y="-151.63" font-family="Times,serif" font-size="14.00">7</text>
</g>
<!-- n5 -->
<!-- n5&#45;&gt;n4 -->
<g id="edge1" class="edge">
<title>n5&#45;&gt;n4</title>
<path fill="none" stroke="lightcoral" stroke-width="2" d="M23.26,-210.12C28.93,-203.07 48.19,-179.13 60.24,-164.15"/>
<polygon fill="lightcoral" stroke="lightcoral" stroke-width="2" points="61.66,-165.18 63.42,-160.18 58.93,-162.98 61.66,-165.18"/>
<text text-anchor="middle" x="36.75" y="-190.93" font-family="Times,serif" font-size="14.00">9</text>
</g>
<!-- n7 -->
<!-- n7&#45;&gt;n3 -->
<g id="edge3" class="edge">
<title>n7&#45;&gt;n3</title>
<path fill="none" stroke="deepskyblue" stroke-width="2" d="M4,-22.59C11.02,-28.29 34.86,-47.65 49.78,-59.77"/>
<polygon fill="deepskyblue" stroke="deepskyblue" stroke-width="2" points="48.74,-61.18 53.73,-62.98 50.95,-58.47 48.74,-61.18"/>
<text text-anchor="middle" x="17.39" y="-44.98" font-family="Times,serif" font-size="14.00">11</text>
</g>
</g>
</svg>
