<?xml version="1.0" encoding="UTF-8" standalone="no"?>
<!DOCTYPE svg PUBLIC "-//W3C//DTD SVG 1.1//EN"
 "http://www.w3.org/Graphics/SVG/1.1/DTD/svg11.dtd">
<!-- Generated by graphviz version 2.43.0 (0)
 -->
<!-- Title: G Pages: 1 -->
<svg width="203pt" height="153pt"
 viewBox="0.00 0.00 202.72 153.41" xmlns="http://www.w3.org/2000/svg" xmlns:xlink="http://www.w3.org/1999/xlink">
<g id="graph0" class="graph" transform="scale(1 1) rotate(0) translate(4 149.41)">
<title>G</title>
<polygon fill="white" stroke="transparent" points="-4,4 -4,-149.41 198.72,-149.41 198.72,4 -4,4"/>
<!-- n1 -->
<g id="node1" class="node">
<title>n1</title>
<ellipse fill="black" stroke="black" cx="57.6" cy="-68.72" rx="1.8" ry="1.8"/>
</g>
<!-- n2 -->
<g id="node2" class="node">
<title>n2</title>
<ellipse fill="black" stroke="black" cx="137.72" cy="-77.28" rx="1.8" ry="1.8"/>
</g>
<!-- n1&#45;&gt;n2 -->
<g id="edge5" class="edge">
<title>n1&#45;&gt;n2</title>
<path fill="none" stroke="grey" d="M58.33,-70.39C61.65,-73.82 75.67,-77.03 91.03,-79.01"/>
<path fill="none" stroke="grey" d="M91.03,-79.01C106.39,-81 123.09,-81.77 131.75,-80.31"/>
<polygon fill="grey" stroke="grey" points="132.29,-81.98 136.54,-78.83 131.25,-78.64 132.29,-81.98"/>
<text text-anchor="middle" x="87.54" y="-79.15" font-family="Times,serif" font-size="14.00">q₁</text>
</g>
<!-- n1&#45;&gt;n2 -->
<g id="edge6" class="edge">
<title>n1&#45;&gt;n2</title>
<path fill="none" stroke="grey" d="M58.67,-67.24C62.6,-64.62 76.78,-64.42 92.07,-65.69"/>
<path fill="none" stroke="grey" d="M92.07,-65.69C107.35,-66.95 123.74,-69.68 132.11,-72.89"/>
<polygon fill="grey" stroke="grey" points="131.45,-74.52 136.69,-75.33 133.1,-71.43 131.45,-74.52"/>
<text text-anchor="middle" x="87.89" y="-58.87" font-family="Times,serif" font-size="14.00">q₂</text>
</g>
<!-- n6 -->
<!-- n1&#45;&gt;n6 -->
<g id="edge4" class="edge">
<title>n1&#45;&gt;n6</title>
<path fill="none" stroke="blue" stroke-width="2" d="M56.23,-70.09C49.55,-76.77 20.36,-105.97 7.79,-118.55"/>
<polygon fill="blue" stroke="blue" stroke-width="2" points="6.52,-117.35 4.22,-122.12 9,-119.82 6.52,-117.35"/>
<text text-anchor="middle" x="24.51" y="-98.12" font-family="Times,serif" font-size="14.00">p₄</text>
</g>
<!-- n4 -->
<!-- n2&#45;&gt;n4 -->
<g id="edge2" class="edge">
<title>n2&#45;&gt;n4</title>
<path fill="none" stroke="red" stroke-width="2" d="M138.77,-78.91C143.88,-86.85 166.23,-121.59 175.85,-136.53"/>
<polygon fill="red" stroke="red" stroke-width="2" points="174.59,-137.8 178.77,-141.06 177.53,-135.91 174.59,-137.8"/>
<text text-anchor="middle" x="149.81" y="-111.52" font-family="Times,serif" font-size="14.00">p₂</text>
</g>
<!-- n3 -->
<!-- n3&#45;&gt;n2 -->
<g id="edge1" class="edge">
<title>n3&#45;&gt;n2</title>
<path fill="none" stroke="lightcoral" stroke-width="2" d="M190.36,-23.35C182.08,-31.83 154.28,-60.31 142.77,-72.1"/>
<polygon fill="lightcoral" stroke="lightcoral" stroke-width="2" points="141.37,-71.03 139.13,-75.83 143.88,-73.47 141.37,-71.03"/>
<text text-anchor="middle" x="159.06" y="-51.53" font-family="Times,serif" font-size="14.00">p₁</text>
</g>
<!-- n5 -->
<!-- n5&#45;&gt;n1 -->
<g id="edge3" class="edge">
<title>n5&#45;&gt;n1</title>
<path fill="none" stroke="deepskyblue" stroke-width="2" d="M17.16,-4.22C22.87,-13.32 44.6,-47.98 53.63,-62.39"/>
<polygon fill="deepskyblue" stroke="deepskyblue" stroke-width="2" points="52.35,-63.64 56.49,-66.94 55.31,-61.78 52.35,-63.64"/>
<text text-anchor="middle" x="27.89" y="-37.1" font-family="Times,serif" font-size="14.00">p₃</text>
</g>
</g>
</svg>
