<?xml version="1.0" encoding="UTF-8" standalone="no"?>
<!DOCTYPE svg PUBLIC "-//W3C//DTD SVG 1.1//EN"
 "http://www.w3.org/Graphics/SVG/1.1/DTD/svg11.dtd">
<!-- Generated by graphviz version 2.43.0 (0)
 -->
<!-- Title: G Pages: 1 -->
<svg width="211pt" height="303pt"
 viewBox="0.00 0.00 211.18 302.58" xmlns="http://www.w3.org/2000/svg" xmlns:xlink="http://www.w3.org/1999/xlink">
<g id="graph0" class="graph" transform="scale(1 1) rotate(0) translate(4 298.58)">
<title>G</title>
<polygon fill="white" stroke="transparent" points="-4,4 -4,-298.58 207.18,-298.58 207.18,4 -4,4"/>
<!-- n1 -->
<g id="node1" class="node">
<title>n1</title>
<ellipse fill="black" stroke="black" cx="78.8" cy="-219.19" rx="1.8" ry="1.8"/>
</g>
<!-- n3 -->
<g id="node3" class="node">
<title>n3</title>
<ellipse fill="black" stroke="black" cx="120.92" cy="-149.58" rx="1.8" ry="1.8"/>
</g>
<!-- n1&#45;&gt;n3 -->
<g id="edge5" class="edge">
<title>n1&#45;&gt;n3</title>
<path fill="none" stroke="grey" d="M79.84,-217.47C82.41,-213.22 89.4,-201.66 96.91,-189.26"/>
<path fill="none" stroke="grey" d="M96.91,-189.26C104.41,-176.86 112.42,-163.62 117.03,-156"/>
<polygon fill="grey" stroke="grey" points="118.67,-156.68 119.76,-151.5 115.67,-154.87 118.67,-156.68"/>
<text text-anchor="middle" x="90.94" y="-190.54" font-family="Times,serif" font-size="14.00">q₁</text>
</g>
<!-- n5 -->
<!-- n1&#45;&gt;n5 -->
<g id="edge2" class="edge">
<title>n1&#45;&gt;n5</title>
<path fill="none" stroke="red" stroke-width="2" d="M79.53,-221C83.14,-229.97 99.17,-269.74 105.64,-285.81"/>
<polygon fill="red" stroke="red" stroke-width="2" points="104.06,-286.57 107.55,-290.56 107.31,-285.26 104.06,-286.57"/>
<text text-anchor="middle" x="85.08" y="-257.21" font-family="Times,serif" font-size="14.00">p₂</text>
</g>
<!-- n2 -->
<g id="node2" class="node">
<title>n2</title>
<ellipse fill="black" stroke="black" cx="97.38" cy="-74.5" rx="1.8" ry="1.8"/>
</g>
<!-- n2&#45;&gt;n3 -->
<g id="edge7" class="edge">
<title>n2&#45;&gt;n3</title>
<path fill="none" stroke="grey" d="M96.14,-75.82C94.31,-80.11 96.8,-93.74 100.93,-108.13"/>
<path fill="none" stroke="grey" d="M100.93,-108.13C105.06,-122.53 110.83,-137.7 115.56,-145.08"/>
<polygon fill="grey" stroke="grey" points="114.26,-146.26 118.81,-148.98 116.95,-144.02 114.26,-146.26"/>
<text text-anchor="middle" x="98.35" y="-114.25" font-family="Times,serif" font-size="14.00">q₃</text>
</g>
<!-- n7 -->
<!-- n2&#45;&gt;n7 -->
<g id="edge4" class="edge">
<title>n2&#45;&gt;n7</title>
<path fill="none" stroke="blue" stroke-width="2" d="M97,-72.71C95.12,-64.01 86.89,-25.92 83.35,-9.54"/>
<polygon fill="blue" stroke="blue" stroke-width="2" points="84.98,-8.8 82.22,-4.28 81.56,-9.54 84.98,-8.8"/>
<text text-anchor="middle" x="82.68" y="-44.92" font-family="Times,serif" font-size="14.00">p₄</text>
</g>
<!-- n3&#45;&gt;n2 -->
<g id="edge6" class="edge">
<title>n3&#45;&gt;n2</title>
<path fill="none" stroke="blue" stroke-width="2" d="M122.16,-148.27C123.99,-143.97 121.5,-130.35 117.37,-115.95"/>
<path fill="none" stroke="deepskyblue" stroke-width="2" d="M117.37,-115.95C113.24,-101.56 107.47,-86.39 102.75,-79.01"/>
<polygon fill="deepskyblue" stroke="deepskyblue" stroke-width="2" points="104.04,-77.82 99.49,-75.1 101.35,-80.07 104.04,-77.82"/>
<text text-anchor="middle" x="119.96" y="-117.44" font-family="Times,serif" font-size="14.00">q₂</text>
</g>
<!-- n4 -->
<!-- n4&#45;&gt;n1 -->
<g id="edge1" class="edge">
<title>n4&#45;&gt;n1</title>
<path fill="none" stroke="lightcoral" stroke-width="2" d="M4.22,-236.96C14.2,-234.58 55.26,-224.8 71.83,-220.85"/>
<polygon fill="lightcoral" stroke="lightcoral" stroke-width="2" points="72.54,-222.48 76.99,-219.62 71.73,-219.08 72.54,-222.48"/>
<text text-anchor="middle" x="30.52" y="-232.71" font-family="Times,serif" font-size="14.00">p₁</text>
</g>
<!-- n6 -->
<!-- n6&#45;&gt;n3 -->
<g id="edge3" class="edge">
<title>n6&#45;&gt;n3</title>
<path fill="none" stroke="deepskyblue" stroke-width="2" d="M198.86,-149.81C188.42,-149.78 145.51,-149.66 128.2,-149.61"/>
<polygon fill="deepskyblue" stroke="deepskyblue" stroke-width="2" points="127.81,-147.85 122.8,-149.59 127.8,-151.35 127.81,-147.85"/>
<text text-anchor="middle" x="156.03" y="-153.51" font-family="Times,serif" font-size="14.00">p₃</text>
</g>
</g>
</svg>
