<?xml version="1.0" encoding="UTF-8" standalone="no"?>
<!DOCTYPE svg PUBLIC "-//W3C//DTD SVG 1.1//EN"
 "http://www.w3.org/Graphics/SVG/1.1/DTD/svg11.dtd">
<!-- Generated by graphviz version 2.43.0 (0)
 -->
<!-- Title: G Pages: 1 -->
<svg width="303pt" height="210pt"
 viewBox="0.00 0.00 302.93 210.13" xmlns="http://www.w3.org/2000/svg" xmlns:xlink="http://www.w3.org/1999/xlink">
<g id="graph0" class="graph" transform="scale(1 1) rotate(0) translate(4 206.13)">
<title>G</title>
<polygon fill="white" stroke="transparent" points="-4,4 -4,-206.13 298.93,-206.13 298.93,4 -4,4"/>
<!-- n1 -->
<g id="node1" class="node">
<title>n1</title>
<ellipse fill="black" stroke="black" cx="75.1" cy="-78.67" rx="1.8" ry="1.8"/>
</g>
<!-- n3 -->
<g id="node3" class="node">
<title>n3</title>
<ellipse fill="black" stroke="black" cx="145.24" cy="-119.91" rx="1.8" ry="1.8"/>
</g>
<!-- n1&#45;&gt;n3 -->
<g id="edge5" class="edge">
<title>n1&#45;&gt;n3</title>
<path fill="none" stroke="grey" d="M76.84,-79.68C81.12,-82.2 92.77,-89.05 105.26,-96.4"/>
<path fill="none" stroke="grey" d="M105.26,-96.4C117.76,-103.74 131.1,-111.59 138.78,-116.1"/>
<polygon fill="grey" stroke="grey" points="138.12,-117.74 143.31,-118.77 139.89,-114.73 138.12,-117.74"/>
<text text-anchor="middle" x="100.31" y="-101.69" font-family="Times,serif" font-size="14.00">q₁</text>
</g>
<!-- n7 -->
<!-- n1&#45;&gt;n7 -->
<g id="edge4" class="edge">
<title>n1&#45;&gt;n7</title>
<path fill="none" stroke="blue" stroke-width="2" d="M74.63,-76.77C72.32,-67.41 62.05,-25.85 57.9,-9.07"/>
<polygon fill="blue" stroke="blue" stroke-width="2" points="59.57,-8.54 56.67,-4.11 56.17,-9.38 59.57,-8.54"/>
<text text-anchor="middle" x="58.76" y="-46.72" font-family="Times,serif" font-size="14.00">p₄</text>
</g>
<!-- n2 -->
<g id="node2" class="node">
<title>n2</title>
<ellipse fill="black" stroke="black" cx="219.78" cy="-94.39" rx="1.8" ry="1.8"/>
</g>
<!-- n2&#45;&gt;n3 -->
<g id="edge7" class="edge">
<title>n2&#45;&gt;n3</title>
<path fill="none" stroke="grey" d="M218.44,-93.18C214.09,-91.46 200.52,-94.32 186.22,-98.83"/>
<path fill="none" stroke="grey" d="M186.22,-98.83C171.91,-103.34 156.88,-109.51 149.61,-114.43"/>
<polygon fill="grey" stroke="grey" points="148.39,-113.17 145.79,-117.78 150.7,-115.8 148.39,-113.17"/>
<text text-anchor="middle" x="176.52" y="-92.6" font-family="Times,serif" font-size="14.00">q₃</text>
</g>
<!-- n5 -->
<!-- n2&#45;&gt;n5 -->
<g id="edge2" class="edge">
<title>n2&#45;&gt;n5</title>
<path fill="none" stroke="red" stroke-width="2" d="M221.59,-94.08C230.45,-92.57 269.48,-85.91 285.76,-83.13"/>
<polygon fill="red" stroke="red" stroke-width="2" points="286.28,-84.81 290.91,-82.25 285.69,-81.36 286.28,-84.81"/>
<text text-anchor="middle" x="246.18" y="-92.4" font-family="Times,serif" font-size="14.00">p₂</text>
</g>
<!-- n3&#45;&gt;n2 -->
<g id="edge6" class="edge">
<title>n3&#45;&gt;n2</title>
<path fill="none" stroke="red" stroke-width="2" d="M146.59,-121.12C150.94,-122.83 164.51,-119.98 178.81,-115.47"/>
<path fill="none" stroke="lightcoral" stroke-width="2" d="M178.81,-115.47C193.12,-110.96 208.15,-104.79 215.42,-99.87"/>
<polygon fill="lightcoral" stroke="lightcoral" stroke-width="2" points="216.63,-101.13 219.24,-96.52 214.33,-98.5 216.63,-101.13"/>
<text text-anchor="middle" x="173.5" y="-114.29" font-family="Times,serif" font-size="14.00">q₂</text>
</g>
<!-- n4 -->
<!-- n4&#45;&gt;n3 -->
<g id="edge1" class="edge">
<title>n4&#45;&gt;n3</title>
<path fill="none" stroke="lightcoral" stroke-width="2" d="M146.13,-197.81C146.01,-187.38 145.52,-144.49 145.33,-127.19"/>
<polygon fill="lightcoral" stroke="lightcoral" stroke-width="2" points="147.07,-126.77 145.27,-121.79 143.57,-126.81 147.07,-126.77"/>
<text text-anchor="middle" x="138.23" y="-166.3" font-family="Times,serif" font-size="14.00">p₁</text>
</g>
<!-- n6 -->
<!-- n6&#45;&gt;n1 -->
<g id="edge3" class="edge">
<title>n6&#45;&gt;n1</title>
<path fill="none" stroke="deepskyblue" stroke-width="2" d="M4.11,-108C13.62,-104.07 52.7,-87.92 68.47,-81.41"/>
<polygon fill="deepskyblue" stroke="deepskyblue" stroke-width="2" points="69.44,-82.9 73.39,-79.37 68.1,-79.67 69.44,-82.9"/>
<text text-anchor="middle" x="28.79" y="-98.5" font-family="Times,serif" font-size="14.00">p₃</text>
</g>
</g>
</svg>
