<?xml version="1.0" encoding="UTF-8" standalone="no"?>
<!DOCTYPE svg PUBLIC "-//W3C//DTD SVG 1.1//EN"
 "http://www.w3.org/Graphics/SVG/1.1/DTD/svg11.dtd">
<!-- Generated by graphviz version 2.43.0 (0)
 -->
<!-- Title: G Pages: 1 -->
<svg width="231pt" height="288pt"
 viewBox="0.00 0.00 230.52 288.42" xmlns="http://www.w3.org/2000/svg" xmlns:xlink="http://www.w3.org/1999/xlink">
<g id="graph0" class="graph" transform="scale(1 1) rotate(0) translate(4 284.42)">
<title>G</title>
<polygon fill="white" stroke="transparent" points="-4,4 -4,-284.42 226.52,-284.42 226.52,4 -4,4"/>
<!-- n1 -->
<g id="node1" class="node">
<title>n1</title>
<ellipse fill="black" stroke="black" cx="74.13" cy="-212.84" rx="1.8" ry="1.8"/>
</g>
<!-- n4 -->
<g id="node4" class="node">
<title>n4</title>
<ellipse fill="black" stroke="black" cx="95.81" cy="-136.77" rx="1.8" ry="1.8"/>
</g>
<!-- n1&#45;&gt;n4 -->
<g id="edge5" class="edge">
<title>n1&#45;&gt;n4</title>
<path fill="none" stroke="grey" d="M74.67,-210.96C75.99,-206.31 79.59,-193.68 83.45,-180.13"/>
<path fill="none" stroke="grey" d="M83.45,-180.13C87.31,-166.58 91.44,-152.12 93.81,-143.79"/>
<polygon fill="grey" stroke="grey" points="95.61,-143.87 95.3,-138.58 92.24,-142.91 95.61,-143.87"/>
<text text-anchor="middle" x="76.74" y="-181.17" font-family="Times,serif" font-size="14.00">q₁</text>
</g>
<!-- n6 -->
<!-- n1&#45;&gt;n6 -->
<g id="edge2" class="edge">
<title>n1&#45;&gt;n6</title>
<path fill="none" stroke="red" stroke-width="2" d="M72.35,-213.64C63.61,-217.58 25.13,-234.92 9.07,-242.15"/>
<polygon fill="red" stroke="red" stroke-width="2" points="8.11,-240.67 4.27,-244.32 9.55,-243.86 8.11,-240.67"/>
<text text-anchor="middle" x="33.21" y="-231.7" font-family="Times,serif" font-size="14.00">p₂</text>
</g>
<!-- n2 -->
<g id="node2" class="node">
<title>n2</title>
<ellipse fill="black" stroke="black" cx="149.79" cy="-84.46" rx="1.8" ry="1.8"/>
</g>
<!-- n3 -->
<g id="node3" class="node">
<title>n3</title>
<ellipse fill="black" stroke="black" cx="79.39" cy="-63.55" rx="1.8" ry="1.8"/>
</g>
<!-- n2&#45;&gt;n3 -->
<g id="edge6" class="edge">
<title>n2&#45;&gt;n3</title>
<path fill="none" stroke="grey" d="M148.05,-83.95C143.79,-82.68 132.27,-79.26 119.85,-75.57"/>
<path fill="none" stroke="grey" d="M119.85,-75.57C107.44,-71.88 94.13,-67.93 86.29,-65.6"/>
<polygon fill="grey" stroke="grey" points="86.62,-63.88 81.33,-64.13 85.62,-67.23 86.62,-63.88"/>
<text text-anchor="middle" x="109.67" y="-78.58" font-family="Times,serif" font-size="14.00">q₂</text>
</g>
<!-- n8 -->
<!-- n2&#45;&gt;n8 -->
<g id="edge4" class="edge">
<title>n2&#45;&gt;n8</title>
<path fill="none" stroke="blue" stroke-width="2" d="M151.54,-83.79C160.1,-80.48 197.85,-65.88 213.59,-59.8"/>
<polygon fill="blue" stroke="blue" stroke-width="2" points="214.27,-61.41 218.3,-57.97 213,-58.15 214.27,-61.41"/>
<text text-anchor="middle" x="175.06" y="-75.59" font-family="Times,serif" font-size="14.00">p₄</text>
</g>
<!-- n3&#45;&gt;n4 -->
<g id="edge8" class="edge">
<title>n3&#45;&gt;n4</title>
<path fill="none" stroke="blue" stroke-width="2" d="M79.8,-65.36C80.79,-69.8 83.48,-81.78 86.38,-94.69"/>
<path fill="none" stroke="deepskyblue" stroke-width="2" d="M86.38,-94.69C89.27,-107.6 92.38,-121.44 94.2,-129.59"/>
<polygon fill="deepskyblue" stroke="deepskyblue" stroke-width="2" points="92.56,-130.26 95.36,-134.75 95.97,-129.49 92.56,-130.26"/>
<text text-anchor="middle" x="79.5" y="-101.28" font-family="Times,serif" font-size="14.00">q₄</text>
</g>
<!-- n4&#45;&gt;n2 -->
<g id="edge7" class="edge">
<title>n4&#45;&gt;n2</title>
<path fill="none" stroke="blue" stroke-width="2" d="M97.15,-135.48C100.42,-132.31 109.25,-123.75 118.77,-114.53"/>
<path fill="none" stroke="deepskyblue" stroke-width="2" d="M118.77,-114.53C128.29,-105.3 138.49,-95.41 144.5,-89.59"/>
<polygon fill="deepskyblue" stroke="deepskyblue" stroke-width="2" points="145.93,-90.64 148.31,-85.9 143.5,-88.13 145.93,-90.64"/>
<text text-anchor="middle" x="113.32" y="-116.33" font-family="Times,serif" font-size="14.00">q₃</text>
</g>
<!-- n5 -->
<!-- n5&#45;&gt;n1 -->
<g id="edge1" class="edge">
<title>n5&#45;&gt;n1</title>
<path fill="none" stroke="lightcoral" stroke-width="2" d="M117.09,-276.24C111.03,-267.29 87.94,-233.22 78.35,-219.06"/>
<polygon fill="lightcoral" stroke="lightcoral" stroke-width="2" points="79.57,-217.74 75.31,-214.58 76.67,-219.7 79.57,-217.74"/>
<text text-anchor="middle" x="90.22" y="-251.45" font-family="Times,serif" font-size="14.00">p₁</text>
</g>
<!-- n7 -->
<!-- n7&#45;&gt;n3 -->
<g id="edge3" class="edge">
<title>n7&#45;&gt;n3</title>
<path fill="none" stroke="deepskyblue" stroke-width="2" d="M36.65,-4.05C42.68,-12.45 65.65,-44.42 75.19,-57.71"/>
<polygon fill="deepskyblue" stroke="deepskyblue" stroke-width="2" points="73.88,-58.87 78.21,-61.92 76.72,-56.83 73.88,-58.87"/>
<text text-anchor="middle" x="48.42" y="-34.68" font-family="Times,serif" font-size="14.00">p₃</text>
</g>
</g>
</svg>
