<?xml version="1.0" encoding="UTF-8" standalone="no"?>
<!DOCTYPE svg PUBLIC "-//W3C//DTD SVG 1.1//EN"
 "http://www.w3.org/Graphics/SVG/1.1/DTD/svg11.dtd">
<!-- Generated by graphviz version 2.43.0 (0)
 -->
<!-- Title: G Pages: 1 -->
<svg width="253pt" height="359pt"
 viewBox="0.00 0.00 253.21 358.96" xmlns="http://www.w3.org/2000/svg" xmlns:xlink="http://www.w3.org/1999/xlink">
<g id="graph0" class="graph" transform="scale(1 1) rotate(0) translate(4 354.96)">
<title>G</title>
<polygon fill="white" stroke="transparent" points="-4,4 -4,-354.96 249.21,-354.96 249.21,4 -4,4"/>
<!-- n1 -->
<g id="node1" class="node">
<title>n1</title>
<ellipse fill="black" stroke="black" cx="78.11" cy="-69.15" rx="1.8" ry="1.8"/>
</g>
<!-- n3 -->
<g id="node3" class="node">
<title>n3</title>
<ellipse fill="black" stroke="black" cx="106.29" cy="-141.04" rx="1.8" ry="1.8"/>
</g>
<!-- n1&#45;&gt;n3 -->
<g id="edge5" class="edge">
<title>n1&#45;&gt;n3</title>
<path fill="none" stroke="grey" d="M78.81,-70.92C80.53,-75.31 85.21,-87.25 90.23,-100.05"/>
<path fill="none" stroke="grey" d="M90.23,-100.05C95.24,-112.86 100.6,-126.54 103.69,-134.41"/>
<polygon fill="grey" stroke="grey" points="102.16,-135.31 105.62,-139.32 105.42,-134.03 102.16,-135.31"/>
<text text-anchor="middle" x="83.75" y="-106.47" font-family="Times,serif" font-size="14.00">q₁</text>
</g>
<!-- n8 -->
<!-- n1&#45;&gt;n8 -->
<g id="edge4" class="edge">
<title>n1&#45;&gt;n8</title>
<path fill="none" stroke="blue" stroke-width="2" d="M79.13,-67.49C84.08,-59.43 105.73,-24.16 115.04,-8.98"/>
<polygon fill="blue" stroke="blue" stroke-width="2" points="116.74,-9.57 117.86,-4.39 113.76,-7.74 116.74,-9.57"/>
<text text-anchor="middle" x="89.59" y="-42.04" font-family="Times,serif" font-size="14.00">p₄</text>
</g>
<!-- n2 -->
<g id="node2" class="node">
<title>n2</title>
<ellipse fill="black" stroke="black" cx="166.45" cy="-280.54" rx="1.8" ry="1.8"/>
</g>
<!-- n4 -->
<g id="node4" class="node">
<title>n4</title>
<ellipse fill="black" stroke="black" cx="134.88" cy="-210.07" rx="1.8" ry="1.8"/>
</g>
<!-- n2&#45;&gt;n4 -->
<g id="edge6" class="edge">
<title>n2&#45;&gt;n4</title>
<path fill="none" stroke="grey" d="M165.67,-278.8C163.74,-274.49 158.5,-262.8 152.87,-250.24"/>
<path fill="none" stroke="grey" d="M152.87,-250.24C147.25,-237.69 141.25,-224.29 137.79,-216.57"/>
<polygon fill="grey" stroke="grey" points="139.27,-215.6 135.63,-211.75 136.08,-217.03 139.27,-215.6"/>
<text text-anchor="middle" x="144.23" y="-251.48" font-family="Times,serif" font-size="14.00">q₂</text>
</g>
<!-- n6 -->
<!-- n2&#45;&gt;n6 -->
<g id="edge2" class="edge">
<title>n2&#45;&gt;n6</title>
<path fill="none" stroke="red" stroke-width="2" d="M165.48,-282.23C160.8,-290.44 140.33,-326.38 131.52,-341.84"/>
<polygon fill="red" stroke="red" stroke-width="2" points="129.81,-341.31 128.85,-346.52 132.85,-343.04 129.81,-341.31"/>
<text text-anchor="middle" x="141" y="-315.84" font-family="Times,serif" font-size="14.00">p₂</text>
</g>
<!-- n3&#45;&gt;n4 -->
<g id="edge7" class="edge">
<title>n3&#45;&gt;n4</title>
<path fill="none" stroke="red" stroke-width="2" d="M105.06,-142.69C103.77,-147.22 107.19,-159.75 112.22,-172.81"/>
<path fill="none" stroke="lightcoral" stroke-width="2" d="M112.22,-172.81C117.24,-185.86 123.88,-199.44 129.03,-206.06"/>
<polygon fill="lightcoral" stroke="lightcoral" stroke-width="2" points="127.97,-207.47 132.77,-209.73 130.42,-204.97 127.97,-207.47"/>
<text text-anchor="middle" x="109.55" y="-178.17" font-family="Times,serif" font-size="14.00">q₃</text>
</g>
<!-- n4&#45;&gt;n3 -->
<g id="edge8" class="edge">
<title>n4&#45;&gt;n3</title>
<path fill="none" stroke="red" stroke-width="2" d="M136.1,-208.42C137.39,-203.88 133.98,-191.35 128.95,-178.3"/>
<path fill="none" stroke="lightcoral" stroke-width="2" d="M128.95,-178.3C123.92,-165.25 117.28,-151.67 112.13,-145.05"/>
<polygon fill="lightcoral" stroke="lightcoral" stroke-width="2" points="113.19,-143.64 108.4,-141.38 110.74,-146.13 113.19,-143.64"/>
<text text-anchor="middle" x="131.62" y="-180.53" font-family="Times,serif" font-size="14.00">q₄</text>
</g>
<!-- n5 -->
<!-- n5&#45;&gt;n2 -->
<g id="edge1" class="edge">
<title>n5&#45;&gt;n2</title>
<path fill="none" stroke="lightcoral" stroke-width="2" d="M241,-297.78C231.01,-295.47 189.97,-285.98 173.41,-282.15"/>
<polygon fill="lightcoral" stroke="lightcoral" stroke-width="2" points="173.51,-280.38 168.25,-280.96 172.72,-283.79 173.51,-280.38"/>
<text text-anchor="middle" x="199.7" y="-293.76" font-family="Times,serif" font-size="14.00">p₁</text>
</g>
<!-- n7 -->
<!-- n7&#45;&gt;n1 -->
<g id="edge3" class="edge">
<title>n7&#45;&gt;n1</title>
<path fill="none" stroke="deepskyblue" stroke-width="2" d="M4.2,-49.54C14.09,-52.16 54.79,-62.96 71.2,-67.31"/>
<polygon fill="deepskyblue" stroke="deepskyblue" stroke-width="2" points="71.05,-69.08 76.33,-68.67 71.94,-65.7 71.05,-69.08"/>
<text text-anchor="middle" x="30.2" y="-62.22" font-family="Times,serif" font-size="14.00">p₃</text>
</g>
</g>
</svg>
