<?xml version="1.0" encoding="UTF-8" standalone="no"?>
<!DOCTYPE svg PUBLIC "-//W3C//DTD SVG 1.1//EN"
 "http://www.w3.org/Graphics/SVG/1.1/DTD/svg11.dtd">
<!-- Generated by graphviz version 2.43.0 (0)
 -->
<!-- Title: G Pages: 1 -->
<svg width="254pt" height="254pt"
 viewBox="0.00 0.00 254.32 253.92" xmlns="http://www.w3.org/2000/svg" xmlns:xlink="http://www.w3.org/1999/xlink">
<g id="graph0" class="graph" transform="scale(1 1) rotate(0) translate(4 249.92)">
<title>G</title>
<polygon fill="white" stroke="transparent" points="-4,4 -4,-249.92 250.32,-249.92 250.32,4 -4,4"/>
<!-- n1 -->
<g id="node1" class="node">
<title>n1</title>
<ellipse fill="black" stroke="black" cx="149.14" cy="-71.27" rx="1.8" ry="1.8"/>
</g>
<!-- n3 -->
<g id="node3" class="node">
<title>n3</title>
<ellipse fill="black" stroke="black" cx="174.93" cy="-149.27" rx="1.8" ry="1.8"/>
</g>
<!-- n1&#45;&gt;n3 -->
<g id="edge6" class="edge">
<title>n1&#45;&gt;n3</title>
<path fill="none" stroke="grey" d="M149.78,-73.2C151.37,-78 155.71,-91.14 160.35,-105.17"/>
<path fill="none" stroke="grey" d="M160.35,-105.17C164.99,-119.21 169.93,-134.13 172.7,-142.52"/>
<polygon fill="grey" stroke="grey" points="171.09,-143.21 174.32,-147.41 174.41,-142.11 171.09,-143.21"/>
<text text-anchor="middle" x="153.74" y="-111.66" font-family="Times,serif" font-size="14.00">q₂</text>
</g>
<!-- n8 -->
<!-- n1&#45;&gt;n8 -->
<g id="edge4" class="edge">
<title>n1&#45;&gt;n8</title>
<path fill="none" stroke="blue" stroke-width="2" d="M150,-69.56C154.21,-61.25 172.62,-24.86 180.54,-9.2"/>
<polygon fill="blue" stroke="blue" stroke-width="2" points="182.24,-9.72 182.93,-4.47 179.11,-8.14 182.24,-9.72"/>
<text text-anchor="middle" x="157.77" y="-43.18" font-family="Times,serif" font-size="14.00">p₄</text>
</g>
<!-- n2 -->
<g id="node2" class="node">
<title>n2</title>
<ellipse fill="black" stroke="black" cx="71.16" cy="-97.07" rx="1.8" ry="1.8"/>
</g>
<!-- n2&#45;&gt;n1 -->
<g id="edge5" class="edge">
<title>n2&#45;&gt;n1</title>
<path fill="none" stroke="blue" stroke-width="2" d="M73.09,-96.43C77.89,-94.84 91.03,-90.5 105.06,-85.85"/>
<path fill="none" stroke="deepskyblue" stroke-width="2" d="M105.06,-85.85C119.08,-81.21 134.01,-76.28 142.39,-73.5"/>
<polygon fill="deepskyblue" stroke="deepskyblue" stroke-width="2" points="143.08,-75.12 147.28,-71.89 141.98,-71.79 143.08,-75.12"/>
<text text-anchor="middle" x="100.24" y="-88.77" font-family="Times,serif" font-size="14.00">q₁</text>
</g>
<!-- n4 -->
<g id="node4" class="node">
<title>n4</title>
<ellipse fill="black" stroke="black" cx="96.98" cy="-175.07" rx="1.8" ry="1.8"/>
</g>
<!-- n2&#45;&gt;n4 -->
<g id="edge7" class="edge">
<title>n2&#45;&gt;n4</title>
<path fill="none" stroke="grey" d="M71.8,-99C73.39,-103.8 77.74,-116.94 82.38,-130.97"/>
<path fill="none" stroke="grey" d="M82.38,-130.97C87.03,-145 91.97,-159.93 94.75,-168.32"/>
<polygon fill="grey" stroke="grey" points="93.13,-169.01 96.37,-173.2 96.46,-167.91 93.13,-169.01"/>
<text text-anchor="middle" x="75.77" y="-137.46" font-family="Times,serif" font-size="14.00">q₃</text>
</g>
<!-- n3&#45;&gt;n4 -->
<g id="edge8" class="edge">
<title>n3&#45;&gt;n4</title>
<path fill="none" stroke="red" stroke-width="2" d="M173.01,-149.91C168.21,-151.5 155.08,-155.84 141.05,-160.48"/>
<path fill="none" stroke="lightcoral" stroke-width="2" d="M141.05,-160.48C127.03,-165.12 112.11,-170.06 103.73,-172.83"/>
<polygon fill="lightcoral" stroke="lightcoral" stroke-width="2" points="103.04,-171.22 98.84,-174.45 104.14,-174.54 103.04,-171.22"/>
<text text-anchor="middle" x="130.87" y="-165.17" font-family="Times,serif" font-size="14.00">q₄</text>
</g>
<!-- n6 -->
<!-- n4&#45;&gt;n6 -->
<g id="edge2" class="edge">
<title>n4&#45;&gt;n6</title>
<path fill="none" stroke="red" stroke-width="2" d="M96.1,-176.77C91.8,-185.03 72.97,-221.2 64.87,-236.76"/>
<polygon fill="red" stroke="red" stroke-width="2" points="63.18,-236.23 62.42,-241.47 66.28,-237.84 63.18,-236.23"/>
<text text-anchor="middle" x="72.99" y="-210.56" font-family="Times,serif" font-size="14.00">p₂</text>
</g>
<!-- n5 -->
<!-- n5&#45;&gt;n3 -->
<g id="edge1" class="edge">
<title>n5&#45;&gt;n3</title>
<path fill="none" stroke="lightcoral" stroke-width="2" d="M242.31,-183.06C233.37,-178.57 196.84,-160.25 181.63,-152.63"/>
<polygon fill="lightcoral" stroke="lightcoral" stroke-width="2" points="182.07,-150.89 176.81,-150.21 180.5,-154.02 182.07,-150.89"/>
<text text-anchor="middle" x="204.47" y="-171.64" font-family="Times,serif" font-size="14.00">p₁</text>
</g>
<!-- n7 -->
<!-- n7&#45;&gt;n2 -->
<g id="edge3" class="edge">
<title>n7&#45;&gt;n2</title>
<path fill="none" stroke="deepskyblue" stroke-width="2" d="M4.3,-62.99C13.74,-67.8 49.67,-86.11 64.6,-93.72"/>
<polygon fill="deepskyblue" stroke="deepskyblue" stroke-width="2" points="64.07,-95.42 69.32,-96.13 65.66,-92.3 64.07,-95.42"/>
<text text-anchor="middle" x="26.95" y="-82.15" font-family="Times,serif" font-size="14.00">p₃</text>
</g>
</g>
</svg>
