<?xml version="1.0" encoding="UTF-8" standalone="no"?>
<!DOCTYPE svg PUBLIC "-//W3C//DTD SVG 1.1//EN"
 "http://www.w3.org/Graphics/SVG/1.1/DTD/svg11.dtd">
<!-- Generated by graphviz version 2.43.0 (0)
 -->
<!-- Title: G Pages: 1 -->
<svg width="222pt" height="222pt"
 viewBox="0.00 0.00 221.76 222.13" xmlns="http://www.w3.org/2000/svg" xmlns:xlink="http://www.w3.org/1999/xlink">
<g id="graph0" class="graph" transform="scale(1 1) rotate(0) translate(4 218.13)">
<title>G</title>
<polygon fill="white" stroke="transparent" points="-4,4 -4,-218.13 217.76,-218.13 217.76,4 -4,4"/>
<!-- n1 -->
<g id="node1" class="node">
<title>n1</title>
<ellipse fill="black" stroke="black" cx="143.96" cy="-61.79" rx="1.8" ry="1.8"/>
</g>
<!-- n2 -->
<g id="node2" class="node">
<title>n2</title>
<ellipse fill="black" stroke="black" cx="152.11" cy="-143.52" rx="1.8" ry="1.8"/>
</g>
<!-- n1&#45;&gt;n2 -->
<g id="edge5" class="edge">
<title>n1&#45;&gt;n2</title>
<path fill="none" stroke="grey" d="M144.16,-63.81C144.66,-68.84 146.04,-82.61 147.5,-97.31"/>
<path fill="none" stroke="grey" d="M147.5,-97.31C148.97,-112.02 150.53,-127.66 151.4,-136.45"/>
<polygon fill="grey" stroke="grey" points="149.68,-136.77 151.92,-141.57 153.16,-136.42 149.68,-136.77"/>
<text text-anchor="middle" x="140.28" y="-103.93" font-family="Times,serif" font-size="14.00">q₁</text>
</g>
<!-- n8 -->
<!-- n1&#45;&gt;n8 -->
<g id="edge4" class="edge">
<title>n1&#45;&gt;n8</title>
<path fill="none" stroke="blue" stroke-width="2" d="M145.18,-60.31C151.12,-53.13 177.12,-21.73 188.31,-8.22"/>
<polygon fill="blue" stroke="blue" stroke-width="2" points="189.85,-9.1 191.7,-4.13 187.16,-6.86 189.85,-9.1"/>
<text text-anchor="middle" x="159.25" y="-38.06" font-family="Times,serif" font-size="14.00">p₄</text>
</g>
<!-- n6 -->
<!-- n2&#45;&gt;n6 -->
<g id="edge2" class="edge">
<title>n2&#45;&gt;n6</title>
<path fill="none" stroke="red" stroke-width="2" d="M153.58,-144.75C160.74,-150.71 192.08,-176.81 205.56,-188.05"/>
<polygon fill="red" stroke="red" stroke-width="2" points="204.68,-189.59 209.64,-191.45 206.92,-186.9 204.68,-189.59"/>
<text text-anchor="middle" x="172.07" y="-170.2" font-family="Times,serif" font-size="14.00">p₂</text>
</g>
<!-- n3 -->
<g id="node3" class="node">
<title>n3</title>
<ellipse fill="black" stroke="black" cx="62.25" cy="-69.9" rx="1.8" ry="1.8"/>
</g>
<!-- n3&#45;&gt;n1 -->
<g id="edge6" class="edge">
<title>n3&#45;&gt;n1</title>
<path fill="none" stroke="blue" stroke-width="2" d="M64.27,-69.7C69.3,-69.2 83.06,-67.83 97.76,-66.37"/>
<path fill="none" stroke="deepskyblue" stroke-width="2" d="M97.76,-66.37C112.47,-64.91 128.1,-63.36 136.89,-62.49"/>
<polygon fill="deepskyblue" stroke="deepskyblue" stroke-width="2" points="137.21,-64.22 142.01,-61.98 136.86,-60.73 137.21,-64.22"/>
<text text-anchor="middle" x="93.08" y="-69.89" font-family="Times,serif" font-size="14.00">q₂</text>
</g>
<!-- n4 -->
<g id="node4" class="node">
<title>n4</title>
<ellipse fill="black" stroke="black" cx="70.31" cy="-151.63" rx="1.8" ry="1.8"/>
</g>
<!-- n3&#45;&gt;n4 -->
<g id="edge8" class="edge">
<title>n3&#45;&gt;n4</title>
<path fill="none" stroke="grey" d="M62.45,-71.92C62.94,-76.95 64.3,-90.72 65.75,-105.42"/>
<path fill="none" stroke="grey" d="M65.75,-105.42C67.2,-120.13 68.74,-135.77 69.61,-144.56"/>
<polygon fill="grey" stroke="grey" points="67.88,-144.87 70.11,-149.68 71.37,-144.53 67.88,-144.87"/>
<text text-anchor="middle" x="58.53" y="-112.04" font-family="Times,serif" font-size="14.00">q₄</text>
</g>
<!-- n4&#45;&gt;n2 -->
<g id="edge7" class="edge">
<title>n4&#45;&gt;n2</title>
<path fill="none" stroke="red" stroke-width="2" d="M72.33,-151.43C77.37,-150.93 91.15,-149.56 105.86,-148.1"/>
<path fill="none" stroke="lightcoral" stroke-width="2" d="M105.86,-148.1C120.58,-146.64 136.24,-145.09 145.03,-144.22"/>
<polygon fill="lightcoral" stroke="lightcoral" stroke-width="2" points="145.36,-145.95 150.16,-143.71 145.01,-142.46 145.36,-145.95"/>
<text text-anchor="middle" x="101.18" y="-151.62" font-family="Times,serif" font-size="14.00">q₃</text>
</g>
<!-- n5 -->
<!-- n5&#45;&gt;n4 -->
<g id="edge1" class="edge">
<title>n5&#45;&gt;n4</title>
<path fill="none" stroke="lightcoral" stroke-width="2" d="M23.26,-210.12C29.9,-201.86 55.18,-170.43 65.69,-157.37"/>
<polygon fill="lightcoral" stroke="lightcoral" stroke-width="2" points="67.24,-158.23 69.01,-153.24 64.51,-156.04 67.24,-158.23"/>
<text text-anchor="middle" x="36.98" y="-187.55" font-family="Times,serif" font-size="14.00">p₁</text>
</g>
<!-- n7 -->
<!-- n7&#45;&gt;n3 -->
<g id="edge3" class="edge">
<title>n7&#45;&gt;n3</title>
<path fill="none" stroke="deepskyblue" stroke-width="2" d="M4,-22.59C12.22,-29.26 43.52,-54.69 56.53,-65.25"/>
<polygon fill="deepskyblue" stroke="deepskyblue" stroke-width="2" points="55.66,-66.8 60.64,-68.59 57.87,-64.08 55.66,-66.8"/>
<text text-anchor="middle" x="22.77" y="-47.72" font-family="Times,serif" font-size="14.00">p₃</text>
</g>
</g>
</svg>
