<?xml version="1.0" encoding="UTF-8" standalone="no"?>
<!DOCTYPE svg PUBLIC "-//W3C//DTD SVG 1.1//EN"
 "http://www.w3.org/Graphics/SVG/1.1/DTD/svg11.dtd">
<!-- Generated by graphviz version 2.43.0 (0)
 -->
<!-- Title: G Pages: 1 -->
<svg width="240pt" height="222pt"
 viewBox="0.00 0.00 240.02 222.06" xmlns="http://www.w3.org/2000/svg" xmlns:xlink="http://www.w3.org/1999/xlink">
<g id="graph0" class="graph" transform="scale(1 1) rotate(0) translate(4 218.06)">
<title>G</title>
<polygon fill="white" stroke="transparent" points="-4,4 -4,-218.06 236.02,-218.06 236.02,4 -4,4"/>
<!-- n1 -->
<g id="node1" class="node">
<title>n1</title>
<ellipse fill="black" stroke="black" cx="65.39" cy="-71.62" rx="1.8" ry="1.8"/>
</g>
<!-- n3 -->
<g id="node3" class="node">
<title>n3</title>
<ellipse fill="black" stroke="black" cx="145.74" cy="-84.54" rx="1.8" ry="1.8"/>
</g>
<!-- n1&#45;&gt;n3 -->
<g id="edge5" class="edge">
<title>n1&#45;&gt;n3</title>
<path fill="none" stroke="grey" d="M67.38,-71.94C72.33,-72.74 85.86,-74.91 100.32,-77.24"/>
<path fill="none" stroke="grey" d="M100.32,-77.24C114.77,-79.56 130.15,-82.03 138.79,-83.42"/>
<polygon fill="grey" stroke="grey" points="138.61,-85.17 143.83,-84.23 139.17,-81.71 138.61,-85.17"/>
<text text-anchor="middle" x="95.58" y="-81.48" font-family="Times,serif" font-size="14.00">q₁</text>
</g>
<!-- n7 -->
<!-- n1&#45;&gt;n7 -->
<g id="edge4" class="edge">
<title>n1&#45;&gt;n7</title>
<path fill="none" stroke="blue" stroke-width="2" d="M64.46,-69.9C59.97,-61.54 40.3,-24.98 31.83,-9.24"/>
<polygon fill="blue" stroke="blue" stroke-width="2" points="33.18,-8.05 29.27,-4.48 30.1,-9.71 33.18,-8.05"/>
<text text-anchor="middle" x="40.65" y="-43.37" font-family="Times,serif" font-size="14.00">p₄</text>
</g>
<!-- n2 -->
<g id="node2" class="node">
<title>n2</title>
<ellipse fill="black" stroke="black" cx="187.43" cy="-151.32" rx="1.8" ry="1.8"/>
</g>
<!-- n2&#45;&gt;n3 -->
<g id="edge6" class="edge">
<title>n2&#45;&gt;n3</title>
<path fill="none" stroke="red" stroke-width="2" d="M188.31,-149.73C189,-145.12 183.16,-132.56 175.54,-119.66"/>
<path fill="none" stroke="lightcoral" stroke-width="2" d="M175.54,-119.66C167.92,-106.77 158.52,-93.53 152.08,-87.57"/>
<polygon fill="lightcoral" stroke="lightcoral" stroke-width="2" points="152.78,-85.92 147.67,-84.49 150.77,-88.79 152.78,-85.92"/>
<text text-anchor="middle" x="162.69" y="-107.45" font-family="Times,serif" font-size="14.00">q₂</text>
</g>
<!-- n2&#45;&gt;n3 -->
<g id="edge7" class="edge">
<title>n2&#45;&gt;n3</title>
<path fill="none" stroke="grey" d="M185.62,-151.41C181.17,-150 172.45,-139.24 164.21,-126.73"/>
<path fill="none" stroke="grey" d="M164.21,-126.73C155.97,-114.22 148.21,-99.96 145.68,-91.56"/>
<polygon fill="grey" stroke="grey" points="147.35,-90.93 144.85,-86.25 143.89,-91.46 147.35,-90.93"/>
<text text-anchor="middle" x="158.15" y="-125.29" font-family="Times,serif" font-size="14.00">q₃</text>
</g>
<!-- n5 -->
<!-- n3&#45;&gt;n5 -->
<g id="edge2" class="edge">
<title>n3&#45;&gt;n5</title>
<path fill="none" stroke="red" stroke-width="2" d="M147.03,-83.03C153.33,-75.64 181.11,-43.09 192.71,-29.5"/>
<polygon fill="red" stroke="red" stroke-width="2" points="194.05,-30.62 195.96,-25.68 191.39,-28.35 194.05,-30.62"/>
<text text-anchor="middle" x="162.37" y="-60.06" font-family="Times,serif" font-size="14.00">p₂</text>
</g>
<!-- n4 -->
<!-- n4&#45;&gt;n2 -->
<g id="edge1" class="edge">
<title>n4&#45;&gt;n2</title>
<path fill="none" stroke="lightcoral" stroke-width="2" d="M228.6,-210.04C222.79,-201.75 200.67,-170.2 191.47,-157.08"/>
<polygon fill="lightcoral" stroke="lightcoral" stroke-width="2" points="192.87,-156.03 188.56,-152.94 190,-158.03 192.87,-156.03"/>
<text text-anchor="middle" x="202.54" y="-187.36" font-family="Times,serif" font-size="14.00">p₁</text>
</g>
<!-- n6 -->
<!-- n6&#45;&gt;n1 -->
<g id="edge3" class="edge">
<title>n6&#45;&gt;n1</title>
<path fill="none" stroke="deepskyblue" stroke-width="2" d="M4.11,-117.2C12.76,-110.77 45.69,-86.27 59.37,-76.1"/>
<polygon fill="deepskyblue" stroke="deepskyblue" stroke-width="2" points="60.73,-77.26 63.7,-72.87 58.65,-74.45 60.73,-77.26"/>
<text text-anchor="middle" x="24.24" y="-100.45" font-family="Times,serif" font-size="14.00">p₃</text>
</g>
</g>
</svg>
