<?xml version="1.0" encoding="UTF-8" standalone="no"?>
<svg
   xmlns:dc="http://purl.org/dc/elements/1.1/"
   xmlns:cc="http://creativecommons.org/ns#"
   xmlns:rdf="http://www.w3.org/1999/02/22-rdf-syntax-ns#"
   xmlns:svg="http://www.w3.org/2000/svg"
   xmlns="http://www.w3.org/2000/svg"
   viewBox="0 0 84.417336 27.317333"
   height="27.317333"
   width="84.417336"
   xml:space="preserve"
   id="svg2"
   version="1.1"><metadata
     id="metadata8"><rdf:RDF><cc:Work
         rdf:about=""><dc:format>image/svg+xml</dc:format><dc:type
           rdf:resource="http://purl.org/dc/dcmitype/StillImage" /></cc:Work></rdf:RDF></metadata><defs
     id="defs6" /><g
     transform="matrix(1.3333333,0,0,-1.3333333,0,27.317333)"
     id="g10"><g
       transform="translate(31.657,10.244)"
       id="g12"><g
         id="g14"><g
           id="g16"><g
             id="g18"><g
               id="g20"><path
                 id="path22"
                 style="fill:none;stroke:#ff0000;stroke-width:0.3985;stroke-linecap:butt;stroke-linejoin:miter;stroke-miterlimit:10;stroke-dasharray:none;stroke-opacity:1"
                 d="M -31.45773,-10.04506 H 31.45775 V 10.04507 H -31.45773 Z" /></g><g
               transform="translate(-28.137)"
               id="g24"><g
                 transform="translate(1.992)"
                 id="g26"><g
                   id="g28"><path
                     id="path30"
                     style="fill:none;stroke:#ff0000;stroke-width:0.3985;stroke-linecap:butt;stroke-linejoin:miter;stroke-miterlimit:10;stroke-dasharray:none;stroke-opacity:1"
                     d="M 0,0 H 27.88852" /><g
                     id="g32"><g
                       transform="translate(27.88852)"
                       id="g34"><g
                         id="g36"><path
                           id="path38"
                           style="fill:none;stroke:#ff0000;stroke-width:0.31878999;stroke-linecap:round;stroke-linejoin:round;stroke-miterlimit:10;stroke-dasharray:none;stroke-opacity:1"
                           d="M -1.19551,1.59401 C -1.09587,0.99626 0,0.09961 0.29886,0 0,-0.09961 -1.09587,-0.99626 -1.19551,-1.59401" /></g></g></g><g
                     id="g40"><path
                       id="path42"
                       style="fill:#0000ff;fill-opacity:1;fill-rule:nonzero;stroke:none"
                       d="M 1.99255,0 C 1.99255,1.10046 1.10046,1.99255 0,1.99255 -1.10046,1.99255 -1.99255,1.10046 -1.99255,0 c 0,-1.10046 0.89209,-1.99255 1.99255,-1.99255 1.10046,0 1.99255,0.89209 1.99255,1.99255 z" /></g></g><g
                   transform="translate(35.602)"
                   id="g44"><g
                     id="g46"><g
                       id="g48"><g
                         transform="translate(-3.736,-3.404)"
                         id="g50"><g
                           id="g52"><g
                             transform="translate(-37.378,-6.84)"
                             id="g54"><text
                               id="text58"
                               style="font-variant:normal;font-weight:normal;font-size:9.96259975px;font-family:CMR10;-inkscape-font-specification:CMR10;writing-mode:lr-tb;fill:#000000;fill-opacity:1;fill-rule:nonzero;stroke:none"
                               transform="matrix(1,0,0,-1,37.378,6.84)"><tspan
                                 id="tspan56"
                                 y="0"
                                 x="0">X</tspan></text>
<g
                               transform="translate(37.378,6.84)"
                               id="g60" /></g></g><g
                           transform="translate(3.736,3.404)"
                           id="g62" /></g></g><g
                       id="g64"><path
                         id="path66"
                         style="fill:#0000ff;fill-opacity:1;fill-rule:nonzero;stroke:none"
                         d="M 1.99255,0 C 1.99255,1.10046 1.10046,1.99255 0,1.99255 -1.10046,1.99255 -1.99255,1.10046 -1.99255,0 c 0,-1.10046 0.89209,-1.99255 1.99255,-1.99255 1.10046,0 1.99255,0.89209 1.99255,1.99255 z" /></g></g><g
                     transform="translate(12.868)"
                     id="g68"><g
                       id="g70"><g
                         id="g72"><g
                           transform="translate(-2.49,-1.176)"
                           id="g74"><g
                             id="g76"><g
                               transform="translate(-51.492,-9.068)"
                               id="g78"><text
                                 id="text82"
                                 style="font-variant:normal;font-weight:normal;font-size:9.96259975px;font-family:CMR10;-inkscape-font-specification:CMR10;writing-mode:lr-tb;fill:#000000;fill-opacity:1;fill-rule:nonzero;stroke:none"
                                 transform="matrix(1,0,0,-1,51.492,9.068)"><tspan
                                   id="tspan80"
                                   y="0"
                                   x="0">g</tspan></text>
<g
                                 transform="translate(51.492,9.068)"
                                 id="g84" /></g></g><g
                             transform="translate(2.49,1.176)"
                             id="g86" /></g></g><g
                         id="g88"><path
                           id="path90"
                           style="fill:#0000ff;fill-opacity:1;fill-rule:nonzero;stroke:none"
                           d="M 1.99255,0 C 1.99255,1.10046 1.10046,1.99255 0,1.99255 -1.10046,1.99255 -1.99255,1.10046 -1.99255,0 c 0,-1.10046 0.89209,-1.99255 1.99255,-1.99255 1.10046,0 1.99255,0.89209 1.99255,1.99255 z" /></g></g><g
                       transform="translate(-50.462)"
                       id="g92" /></g></g></g><g
                 transform="translate(28.137)"
                 id="g94" /></g></g></g></g></g></g></svg>