<?xml version="1.0" encoding="UTF-8" standalone="no"?>
<!DOCTYPE svg PUBLIC "-//W3C//DTD SVG 1.1//EN"
 "http://www.w3.org/Graphics/SVG/1.1/DTD/svg11.dtd">
<!-- Generated by graphviz version 2.43.0 (0)
 -->
<!-- Title: G Pages: 1 -->
<svg width="281pt" height="301pt"
 viewBox="0.00 0.00 280.58 300.54" xmlns="http://www.w3.org/2000/svg" xmlns:xlink="http://www.w3.org/1999/xlink">
<g id="graph0" class="graph" transform="scale(1 1) rotate(0) translate(4 296.54)">
<title>G</title>
<polygon fill="white" stroke="transparent" points="-4,4 -4,-296.54 276.58,-296.54 276.58,4 -4,4"/>
<!-- n1 -->
<g id="node1" class="node">
<title>n1</title>
<ellipse fill="black" stroke="black" cx="80.84" cy="-78.61" rx="1.8" ry="1.8"/>
</g>
<!-- n4 -->
<g id="node4" class="node">
<title>n4</title>
<ellipse fill="black" stroke="black" cx="126.53" cy="-143.18" rx="1.8" ry="1.8"/>
</g>
<!-- n1&#45;&gt;n4 -->
<g id="edge5" class="edge">
<title>n1&#45;&gt;n4</title>
<path fill="none" stroke="grey" d="M81.97,-80.21C84.76,-84.15 92.35,-94.87 100.49,-106.38"/>
<path fill="none" stroke="grey" d="M100.49,-106.38C108.62,-117.88 117.31,-130.16 122.31,-137.23"/>
<polygon fill="grey" stroke="grey" points="120.95,-138.34 125.27,-141.41 123.81,-136.31 120.95,-138.34"/>
<text text-anchor="middle" x="94.64" y="-112.52" font-family="Times,serif" font-size="14.00">q₁</text>
</g>
<!-- n8 -->
<!-- n1&#45;&gt;n8 -->
<g id="edge4" class="edge">
<title>n1&#45;&gt;n8</title>
<path fill="none" stroke="blue" stroke-width="2" d="M81.34,-76.72C83.8,-67.36 94.69,-25.84 99.09,-9.06"/>
<polygon fill="blue" stroke="blue" stroke-width="2" points="100.82,-9.39 100.39,-4.11 97.43,-8.5 100.82,-9.39"/>
<text text-anchor="middle" x="82.72" y="-46.69" font-family="Times,serif" font-size="14.00">p₄</text>
</g>
<!-- n2 -->
<g id="node2" class="node">
<title>n2</title>
<ellipse fill="black" stroke="black" cx="135.33" cy="-217.71" rx="1.8" ry="1.8"/>
</g>
<!-- n3 -->
<g id="node3" class="node">
<title>n3</title>
<ellipse fill="black" stroke="black" cx="194.79" cy="-174.56" rx="1.8" ry="1.8"/>
</g>
<!-- n2&#45;&gt;n3 -->
<g id="edge6" class="edge">
<title>n2&#45;&gt;n3</title>
<path fill="none" stroke="grey" d="M136.8,-216.64C140.4,-214.03 150.13,-206.97 160.62,-199.36"/>
<path fill="none" stroke="grey" d="M160.62,-199.36C171.11,-191.75 182.35,-183.59 188.97,-178.79"/>
<polygon fill="grey" stroke="grey" points="190.14,-180.1 193.16,-175.75 188.08,-177.27 190.14,-180.1"/>
<text text-anchor="middle" x="155.38" y="-201.51" font-family="Times,serif" font-size="14.00">q₂</text>
</g>
<!-- n6 -->
<!-- n2&#45;&gt;n6 -->
<g id="edge2" class="edge">
<title>n2&#45;&gt;n6</title>
<path fill="none" stroke="red" stroke-width="2" d="M134.81,-219.51C132.27,-228.33 121.08,-267.19 116.42,-283.4"/>
<polygon fill="red" stroke="red" stroke-width="2" points="114.64,-283.25 114.94,-288.53 118,-284.21 114.64,-283.25"/>
<text text-anchor="middle" x="118.11" y="-255.25" font-family="Times,serif" font-size="14.00">p₂</text>
</g>
<!-- n3&#45;&gt;n4 -->
<g id="edge8" class="edge">
<title>n3&#45;&gt;n4</title>
<path fill="none" stroke="red" stroke-width="2" d="M193.11,-173.78C188.97,-171.88 177.8,-166.75 165.76,-161.22"/>
<path fill="none" stroke="lightcoral" stroke-width="2" d="M165.76,-161.22C153.72,-155.68 140.82,-149.75 133.22,-146.26"/>
<polygon fill="lightcoral" stroke="lightcoral" stroke-width="2" points="133.68,-144.55 128.41,-144.05 132.22,-147.73 133.68,-144.55"/>
<text text-anchor="middle" x="155.66" y="-163.82" font-family="Times,serif" font-size="14.00">q₄</text>
</g>
<!-- n4&#45;&gt;n2 -->
<g id="edge7" class="edge">
<title>n4&#45;&gt;n2</title>
<path fill="none" stroke="red" stroke-width="2" d="M126.74,-145.03C127.28,-149.54 128.72,-161.74 130.27,-174.88"/>
<path fill="none" stroke="lightcoral" stroke-width="2" d="M130.27,-174.88C131.82,-188.02 133.49,-202.11 134.47,-210.4"/>
<polygon fill="lightcoral" stroke="lightcoral" stroke-width="2" points="132.76,-210.9 135.09,-215.66 136.24,-210.48 132.76,-210.9"/>
<text text-anchor="middle" x="123.1" y="-181.51" font-family="Times,serif" font-size="14.00">q₃</text>
</g>
<!-- n5 -->
<!-- n5&#45;&gt;n3 -->
<g id="edge1" class="edge">
<title>n5&#45;&gt;n3</title>
<path fill="none" stroke="lightcoral" stroke-width="2" d="M268.4,-177.02C258.63,-176.69 218.72,-175.36 202.11,-174.8"/>
<polygon fill="lightcoral" stroke="lightcoral" stroke-width="2" points="201.9,-173.05 196.85,-174.63 201.79,-176.54 201.9,-173.05"/>
<text text-anchor="middle" x="227.75" y="-179.71" font-family="Times,serif" font-size="14.00">p₁</text>
</g>
<!-- n7 -->
<!-- n7&#45;&gt;n1 -->
<g id="edge3" class="edge">
<title>n7&#45;&gt;n1</title>
<path fill="none" stroke="deepskyblue" stroke-width="2" d="M4.27,-72.09C14.53,-72.96 56.69,-76.56 73.69,-78"/>
<polygon fill="deepskyblue" stroke="deepskyblue" stroke-width="2" points="73.86,-79.78 78.99,-78.46 74.16,-76.29 73.86,-79.78"/>
<text text-anchor="middle" x="31.48" y="-78.85" font-family="Times,serif" font-size="14.00">p₃</text>
</g>
</g>
</svg>
